<?xml version="1.0" standalone="no"?>
<svg viewBox="0 0 200 200" xmlns="http://www.w3.org/2000/svg">
  <path fill="#F9A7AB" d="M22.7,-41.6C30.6,-34.7,39.2,-31.1,45.2,-24.7C51.2,-18.4,54.8,-9.2,59.2,2.5C63.6,14.3,68.9,28.6,65.8,40.1C62.8,51.6,51.4,60.4,39,60.9C26.6,61.4,13.3,53.6,3,48.5C-7.4,43.4,-14.8,40.9,-29.2,41.6C-43.5,42.2,-64.7,45.9,-72.5,39.5C-80.4,33.1,-74.7,16.5,-67.6,4.1C-60.5,-8.3,-51.9,-16.7,-45.2,-24.9C-38.4,-33.2,-33.5,-41.4,-26.3,-48.6C-19.1,-55.9,-9.5,-62.3,-1.1,-60.5C7.4,-58.6,14.7,-48.5,22.7,-41.6Z" transform="translate(100 100)" />
</svg>
